<svg aria-roledescription="er" role="graphics-document document" viewBox="-3.5061912536621094 0 187.87100219726562 879" style="max-width: 187.871px; background-color: white;" xmlns:xlink="http://www.w3.org/1999/xlink" xmlns="http://www.w3.org/2000/svg" width="100%" id="my-svg"><style>#my-svg{font-family:"trebuchet ms",verdana,arial,sans-serif;font-size:16px;fill:#000000;}#my-svg .error-icon{fill:#552222;}#my-svg .error-text{fill:#552222;stroke:#552222;}#my-svg .edge-thickness-normal{stroke-width:2px;}#my-svg .edge-thickness-thick{stroke-width:3.5px;}#my-svg .edge-pattern-solid{stroke-dasharray:0;}#my-svg .edge-pattern-dashed{stroke-dasharray:3;}#my-svg .edge-pattern-dotted{stroke-dasharray:2;}#my-svg .marker{fill:#000000;stroke:#000000;}#my-svg .marker.cross{stroke:#000000;}#my-svg svg{font-family:"trebuchet ms",verdana,arial,sans-serif;font-size:16px;}#my-svg .entityBox{fill:#cde498;stroke:#13540c;}#my-svg .attributeBoxOdd{fill:#ffffff;stroke:#13540c;}#my-svg .attributeBoxEven{fill:#f2f2f2;stroke:#13540c;}#my-svg .relationshipLabelBox{fill:hsl(78.1578947368, 58.4615384615%, 84.5098039216%);opacity:0.7;background-color:hsl(78.1578947368, 58.4615384615%, 84.5098039216%);}#my-svg .relationshipLabelBox rect{opacity:0.5;}#my-svg .relationshipLine{stroke:#000000;}#my-svg .entityTitleText{text-anchor:middle;font-size:18px;fill:#000000;}#my-svg #MD_PARENT_START{fill:#f5f5f5!important;stroke:#000000!important;stroke-width:1;}#my-svg #MD_PARENT_END{fill:#f5f5f5!important;stroke:#000000!important;stroke-width:1;}#my-svg :root{--mermaid-font-family:"trebuchet ms",verdana,arial,sans-serif;}</style><g/><defs><marker orient="auto" markerHeight="240" markerWidth="190" refY="7" refX="0" id="MD_PARENT_START"><path d="M 18,7 L9,13 L1,7 L9,1 Z"/></marker></defs><defs><marker orient="auto" markerHeight="28" markerWidth="20" refY="7" refX="19" id="MD_PARENT_END"><path d="M 18,7 L9,13 L1,7 L9,1 Z"/></marker></defs><defs><marker orient="auto" markerHeight="18" markerWidth="18" refY="9" refX="0" id="ONLY_ONE_START"><path d="M9,0 L9,18 M15,0 L15,18" fill="none" stroke="gray"/></marker></defs><defs><marker orient="auto" markerHeight="18" markerWidth="18" refY="9" refX="18" id="ONLY_ONE_END"><path d="M3,0 L3,18 M9,0 L9,18" fill="none" stroke="gray"/></marker></defs><defs><marker orient="auto" markerHeight="18" markerWidth="30" refY="9" refX="0" id="ZERO_OR_ONE_START"><circle r="6" cy="9" cx="21" fill="white" stroke="gray"/><path d="M9,0 L9,18" fill="none" stroke="gray"/></marker></defs><defs><marker orient="auto" markerHeight="18" markerWidth="30" refY="9" refX="30" id="ZERO_OR_ONE_END"><circle r="6" cy="9" cx="9" fill="white" stroke="gray"/><path d="M21,0 L21,18" fill="none" stroke="gray"/></marker></defs><defs><marker orient="auto" markerHeight="36" markerWidth="45" refY="18" refX="18" id="ONE_OR_MORE_START"><path d="M0,18 Q 18,0 36,18 Q 18,36 0,18 M42,9 L42,27" fill="none" stroke="gray"/></marker></defs><defs><marker orient="auto" markerHeight="36" markerWidth="45" refY="18" refX="27" id="ONE_OR_MORE_END"><path d="M3,9 L3,27 M9,18 Q27,0 45,18 Q27,36 9,18" fill="none" stroke="gray"/></marker></defs><defs><marker orient="auto" markerHeight="36" markerWidth="57" refY="18" refX="18" id="ZERO_OR_MORE_START"><circle r="6" cy="18" cx="48" fill="white" stroke="gray"/><path d="M0,18 Q18,0 36,18 Q18,36 0,18" fill="none" stroke="gray"/></marker></defs><defs><marker orient="auto" markerHeight="36" markerWidth="57" refY="18" refX="39" id="ZERO_OR_MORE_END"><circle r="6" cy="18" cx="9" fill="white" stroke="gray"/><path d="M21,18 Q39,0 57,18 Q39,36 21,18" fill="none" stroke="gray"/></marker></defs><path style="stroke: gray; fill: none;" marker-start="url(#ZERO_OR_MORE_START)" marker-end="url(#ZERO_OR_MORE_END)" d="M70.044,89L65.113,97.333C60.182,105.667,50.32,122.333,47.804,139C45.289,155.667,50.12,172.333,52.535,180.667L54.95,189" class="er relationshipLine"/><path style="stroke: gray; fill: none;" marker-start="url(#ZERO_OR_ONE_START)" marker-end="url(#ONLY_ONE_END)" d="M125.965,189L128.38,180.667C130.796,172.333,135.627,155.667,133.111,139C130.596,122.333,120.734,105.667,115.803,97.333L110.872,89" class="er relationshipLine"/><path style="stroke: gray; fill: none;" marker-start="url(#ZERO_OR_MORE_START)" marker-end="url(#ZERO_OR_MORE_END)" d="M54.95,434L52.535,442.333C50.12,450.667,45.289,467.333,46.116,484C46.943,500.667,53.428,517.333,56.67,525.667L59.913,534" class="er relationshipLine"/><path style="stroke: gray; fill: none;" marker-start="url(#ZERO_OR_ONE_START)" marker-end="url(#ONLY_ONE_END)" d="M90.458,691L90.458,699.333C90.458,707.667,90.458,724.333,90.458,741C90.458,757.667,90.458,774.333,90.458,782.667L90.458,791" class="er relationshipLine"/><path style="stroke: gray; fill: none;" marker-start="url(#ZERO_OR_ONE_START)" marker-end="url(#ONLY_ONE_END)" d="M121.002,534L124.245,525.667C127.488,517.333,133.973,500.667,134.8,484C135.627,467.333,130.796,450.667,128.38,442.333L125.965,434" class="er relationshipLine"/><g transform="translate(40.457733154296875,791 )" id="entity-Role-8dbdbbc4-0419-5464-aae6-f142fb2ece67"><rect height="68" width="100" y="0" x="0" class="er entityBox"/><text style="dominant-baseline: middle; text-anchor: middle; font-size: 12px;" transform="translate(50,12)" y="0" x="0" id="text-entity-Role-8dbdbbc4-0419-5464-aae6-f142fb2ece67" class="er entityLabel">Role</text><rect height="22" width="50" y="24" x="0" class="er attributeBoxOdd"/><text style="dominant-baseline: middle; font-size: 10.2px;" transform="translate(5,35)" y="0" x="0" id="text-entity-Role-8dbdbbc4-0419-5464-aae6-f142fb2ece67-attr-1-type" class="er entityLabel">user</text><rect height="22" width="50" y="24" x="50" class="er attributeBoxOdd"/><text style="dominant-baseline: middle; font-size: 10.2px;" transform="translate(55,35)" y="0" x="0" id="text-entity-Role-8dbdbbc4-0419-5464-aae6-f142fb2ece67-attr-1-name" class="er entityLabel">user</text><rect height="22" width="50" y="46" x="0" class="er attributeBoxEven"/><text style="dominant-baseline: middle; font-size: 10.2px;" transform="translate(5,57)" y="0" x="0" id="text-entity-Role-8dbdbbc4-0419-5464-aae6-f142fb2ece67-attr-2-type" class="er entityLabel">system</text><rect height="22" width="50" y="46" x="50" class="er attributeBoxEven"/><text style="dominant-baseline: middle; font-size: 10.2px;" transform="translate(55,57)" y="0" x="0" id="text-entity-Role-8dbdbbc4-0419-5464-aae6-f142fb2ece67-attr-2-name" class="er entityLabel">system</text></g><g transform="translate(40.457733154296875,20 )" id="entity-Category-1a07ff93-e37c-5c4b-81d2-6cefab6d4eed"><rect height="69" width="100" y="0" x="0" class="er entityBox"/><text style="dominant-baseline: middle; text-anchor: middle; font-size: 12px;" transform="translate(50,12)" y="0" x="0" id="text-entity-Category-1a07ff93-e37c-5c4b-81d2-6cefab6d4eed" class="er entityLabel">Category</text><rect height="23" width="38.93835957845052" y="24" x="0" class="er attributeBoxOdd"/><text style="dominant-baseline: middle; font-size: 10.2px;" transform="translate(5,35.5)" y="0" x="0" id="text-entity-Category-1a07ff93-e37c-5c4b-81d2-6cefab6d4eed-attr-1-type" class="er entityLabel">String</text><rect height="23" width="36.94121297200521" y="24" x="38.93835957845052" class="er attributeBoxOdd"/><text style="dominant-baseline: middle; font-size: 10.2px;" transform="translate(43.93835957845052,35.5)" y="0" x="0" id="text-entity-Category-1a07ff93-e37c-5c4b-81d2-6cefab6d4eed-attr-1-name" class="er entityLabel">id</text><rect height="23" width="24.12042744954427" y="24" x="75.87957255045573" class="er attributeBoxOdd"/><text style="dominant-baseline: middle; font-size: 10.2px;" transform="translate(80.87957255045573,35.5)" y="0" x="0" id="text-entity-Category-1a07ff93-e37c-5c4b-81d2-6cefab6d4eed-attr-1-comment" class="er entityLabel">🗝️</text><rect height="22" width="38.93835957845052" y="47" x="0" class="er attributeBoxEven"/><text style="dominant-baseline: middle; font-size: 10.2px;" transform="translate(5,58)" y="0" x="0" id="text-entity-Category-1a07ff93-e37c-5c4b-81d2-6cefab6d4eed-attr-2-type" class="er entityLabel">String</text><rect height="22" width="36.94121297200521" y="47" x="38.93835957845052" class="er attributeBoxEven"/><text style="dominant-baseline: middle; font-size: 10.2px;" transform="translate(43.93835957845052,58)" y="0" x="0" id="text-entity-Category-1a07ff93-e37c-5c4b-81d2-6cefab6d4eed-attr-2-name" class="er entityLabel">name</text><rect height="22" width="24.12042744954427" y="47" x="75.87957255045573" class="er attributeBoxEven"/><text style="dominant-baseline: middle; font-size: 10.2px;" transform="translate(80.87957255045573,58)" y="0" x="0" id="text-entity-Category-1a07ff93-e37c-5c4b-81d2-6cefab6d4eed-attr-2-comment" class="er entityLabel"/></g><g transform="translate(20,189 )" id="entity-Companion-d41d37b3-1fff-53fb-9865-54b4f60df2e7"><rect height="245" width="140.91546630859375" y="0" x="0" class="er entityBox"/><text style="dominant-baseline: middle; text-anchor: middle; font-size: 12px;" transform="translate(70.45773315429688,12)" y="0" x="0" id="text-entity-Companion-d41d37b3-1fff-53fb-9865-54b4f60df2e7" class="er entityLabel">Companion</text><rect height="23" width="54.095550537109375" y="24" x="0" class="er attributeBoxOdd"/><text style="dominant-baseline: middle; font-size: 10.2px;" transform="translate(5,35.5)" y="0" x="0" id="text-entity-Companion-d41d37b3-1fff-53fb-9865-54b4f60df2e7-attr-1-type" class="er entityLabel">String</text><rect height="23" width="64.24179077148438" y="24" x="54.095550537109375" class="er attributeBoxOdd"/><text style="dominant-baseline: middle; font-size: 10.2px;" transform="translate(59.095550537109375,35.5)" y="0" x="0" id="text-entity-Companion-d41d37b3-1fff-53fb-9865-54b4f60df2e7-attr-1-name" class="er entityLabel">id</text><rect height="23" width="22.578125" y="24" x="118.33734130859375" class="er attributeBoxOdd"/><text style="dominant-baseline: middle; font-size: 10.2px;" transform="translate(123.33734130859375,35.5)" y="0" x="0" id="text-entity-Companion-d41d37b3-1fff-53fb-9865-54b4f60df2e7-attr-1-comment" class="er entityLabel">🗝️</text><rect height="22" width="54.095550537109375" y="47" x="0" class="er attributeBoxEven"/><text style="dominant-baseline: middle; font-size: 10.2px;" transform="translate(5,58)" y="0" x="0" id="text-entity-Companion-d41d37b3-1fff-53fb-9865-54b4f60df2e7-attr-2-type" class="er entityLabel">String</text><rect height="22" width="64.24179077148438" y="47" x="54.095550537109375" class="er attributeBoxEven"/><text style="dominant-baseline: middle; font-size: 10.2px;" transform="translate(59.095550537109375,58)" y="0" x="0" id="text-entity-Companion-d41d37b3-1fff-53fb-9865-54b4f60df2e7-attr-2-name" class="er entityLabel">userId</text><rect height="22" width="22.578125" y="47" x="118.33734130859375" class="er attributeBoxEven"/><text style="dominant-baseline: middle; font-size: 10.2px;" transform="translate(123.33734130859375,58)" y="0" x="0" id="text-entity-Companion-d41d37b3-1fff-53fb-9865-54b4f60df2e7-attr-2-comment" class="er entityLabel"/><rect height="22" width="54.095550537109375" y="69" x="0" class="er attributeBoxOdd"/><text style="dominant-baseline: middle; font-size: 10.2px;" transform="translate(5,80)" y="0" x="0" id="text-entity-Companion-d41d37b3-1fff-53fb-9865-54b4f60df2e7-attr-3-type" class="er entityLabel">String</text><rect height="22" width="64.24179077148438" y="69" x="54.095550537109375" class="er attributeBoxOdd"/><text style="dominant-baseline: middle; font-size: 10.2px;" transform="translate(59.095550537109375,80)" y="0" x="0" id="text-entity-Companion-d41d37b3-1fff-53fb-9865-54b4f60df2e7-attr-3-name" class="er entityLabel">userName</text><rect height="22" width="22.578125" y="69" x="118.33734130859375" class="er attributeBoxOdd"/><text style="dominant-baseline: middle; font-size: 10.2px;" transform="translate(123.33734130859375,80)" y="0" x="0" id="text-entity-Companion-d41d37b3-1fff-53fb-9865-54b4f60df2e7-attr-3-comment" class="er entityLabel"/><rect height="22" width="54.095550537109375" y="91" x="0" class="er attributeBoxEven"/><text style="dominant-baseline: middle; font-size: 10.2px;" transform="translate(5,102)" y="0" x="0" id="text-entity-Companion-d41d37b3-1fff-53fb-9865-54b4f60df2e7-attr-4-type" class="er entityLabel">String</text><rect height="22" width="64.24179077148438" y="91" x="54.095550537109375" class="er attributeBoxEven"/><text style="dominant-baseline: middle; font-size: 10.2px;" transform="translate(59.095550537109375,102)" y="0" x="0" id="text-entity-Companion-d41d37b3-1fff-53fb-9865-54b4f60df2e7-attr-4-name" class="er entityLabel">src</text><rect height="22" width="22.578125" y="91" x="118.33734130859375" class="er attributeBoxEven"/><text style="dominant-baseline: middle; font-size: 10.2px;" transform="translate(123.33734130859375,102)" y="0" x="0" id="text-entity-Companion-d41d37b3-1fff-53fb-9865-54b4f60df2e7-attr-4-comment" class="er entityLabel"/><rect height="22" width="54.095550537109375" y="113" x="0" class="er attributeBoxOdd"/><text style="dominant-baseline: middle; font-size: 10.2px;" transform="translate(5,124)" y="0" x="0" id="text-entity-Companion-d41d37b3-1fff-53fb-9865-54b4f60df2e7-attr-5-type" class="er entityLabel">String</text><rect height="22" width="64.24179077148438" y="113" x="54.095550537109375" class="er attributeBoxOdd"/><text style="dominant-baseline: middle; font-size: 10.2px;" transform="translate(59.095550537109375,124)" y="0" x="0" id="text-entity-Companion-d41d37b3-1fff-53fb-9865-54b4f60df2e7-attr-5-name" class="er entityLabel">name</text><rect height="22" width="22.578125" y="113" x="118.33734130859375" class="er attributeBoxOdd"/><text style="dominant-baseline: middle; font-size: 10.2px;" transform="translate(123.33734130859375,124)" y="0" x="0" id="text-entity-Companion-d41d37b3-1fff-53fb-9865-54b4f60df2e7-attr-5-comment" class="er entityLabel"/><rect height="22" width="54.095550537109375" y="135" x="0" class="er attributeBoxEven"/><text style="dominant-baseline: middle; font-size: 10.2px;" transform="translate(5,146)" y="0" x="0" id="text-entity-Companion-d41d37b3-1fff-53fb-9865-54b4f60df2e7-attr-6-type" class="er entityLabel">String</text><rect height="22" width="64.24179077148438" y="135" x="54.095550537109375" class="er attributeBoxEven"/><text style="dominant-baseline: middle; font-size: 10.2px;" transform="translate(59.095550537109375,146)" y="0" x="0" id="text-entity-Companion-d41d37b3-1fff-53fb-9865-54b4f60df2e7-attr-6-name" class="er entityLabel">description</text><rect height="22" width="22.578125" y="135" x="118.33734130859375" class="er attributeBoxEven"/><text style="dominant-baseline: middle; font-size: 10.2px;" transform="translate(123.33734130859375,146)" y="0" x="0" id="text-entity-Companion-d41d37b3-1fff-53fb-9865-54b4f60df2e7-attr-6-comment" class="er entityLabel"/><rect height="22" width="54.095550537109375" y="157" x="0" class="er attributeBoxOdd"/><text style="dominant-baseline: middle; font-size: 10.2px;" transform="translate(5,168)" y="0" x="0" id="text-entity-Companion-d41d37b3-1fff-53fb-9865-54b4f60df2e7-attr-7-type" class="er entityLabel">String</text><rect height="22" width="64.24179077148438" y="157" x="54.095550537109375" class="er attributeBoxOdd"/><text style="dominant-baseline: middle; font-size: 10.2px;" transform="translate(59.095550537109375,168)" y="0" x="0" id="text-entity-Companion-d41d37b3-1fff-53fb-9865-54b4f60df2e7-attr-7-name" class="er entityLabel">instructions</text><rect height="22" width="22.578125" y="157" x="118.33734130859375" class="er attributeBoxOdd"/><text style="dominant-baseline: middle; font-size: 10.2px;" transform="translate(123.33734130859375,168)" y="0" x="0" id="text-entity-Companion-d41d37b3-1fff-53fb-9865-54b4f60df2e7-attr-7-comment" class="er entityLabel"/><rect height="22" width="54.095550537109375" y="179" x="0" class="er attributeBoxEven"/><text style="dominant-baseline: middle; font-size: 10.2px;" transform="translate(5,190)" y="0" x="0" id="text-entity-Companion-d41d37b3-1fff-53fb-9865-54b4f60df2e7-attr-8-type" class="er entityLabel">String</text><rect height="22" width="64.24179077148438" y="179" x="54.095550537109375" class="er attributeBoxEven"/><text style="dominant-baseline: middle; font-size: 10.2px;" transform="translate(59.095550537109375,190)" y="0" x="0" id="text-entity-Companion-d41d37b3-1fff-53fb-9865-54b4f60df2e7-attr-8-name" class="er entityLabel">seed</text><rect height="22" width="22.578125" y="179" x="118.33734130859375" class="er attributeBoxEven"/><text style="dominant-baseline: middle; font-size: 10.2px;" transform="translate(123.33734130859375,190)" y="0" x="0" id="text-entity-Companion-d41d37b3-1fff-53fb-9865-54b4f60df2e7-attr-8-comment" class="er entityLabel"/><rect height="22" width="54.095550537109375" y="201" x="0" class="er attributeBoxOdd"/><text style="dominant-baseline: middle; font-size: 10.2px;" transform="translate(5,212)" y="0" x="0" id="text-entity-Companion-d41d37b3-1fff-53fb-9865-54b4f60df2e7-attr-9-type" class="er entityLabel">DateTime</text><rect height="22" width="64.24179077148438" y="201" x="54.095550537109375" class="er attributeBoxOdd"/><text style="dominant-baseline: middle; font-size: 10.2px;" transform="translate(59.095550537109375,212)" y="0" x="0" id="text-entity-Companion-d41d37b3-1fff-53fb-9865-54b4f60df2e7-attr-9-name" class="er entityLabel">createdAt</text><rect height="22" width="22.578125" y="201" x="118.33734130859375" class="er attributeBoxOdd"/><text style="dominant-baseline: middle; font-size: 10.2px;" transform="translate(123.33734130859375,212)" y="0" x="0" id="text-entity-Companion-d41d37b3-1fff-53fb-9865-54b4f60df2e7-attr-9-comment" class="er entityLabel"/><rect height="22" width="54.095550537109375" y="223" x="0" class="er attributeBoxEven"/><text style="dominant-baseline: middle; font-size: 10.2px;" transform="translate(5,234)" y="0" x="0" id="text-entity-Companion-d41d37b3-1fff-53fb-9865-54b4f60df2e7-attr-10-type" class="er entityLabel">DateTime</text><rect height="22" width="64.24179077148438" y="223" x="54.095550537109375" class="er attributeBoxEven"/><text style="dominant-baseline: middle; font-size: 10.2px;" transform="translate(59.095550537109375,234)" y="0" x="0" id="text-entity-Companion-d41d37b3-1fff-53fb-9865-54b4f60df2e7-attr-10-name" class="er entityLabel">updatedAt</text><rect height="22" width="22.578125" y="223" x="118.33734130859375" class="er attributeBoxEven"/><text style="dominant-baseline: middle; font-size: 10.2px;" transform="translate(123.33734130859375,234)" y="0" x="0" id="text-entity-Companion-d41d37b3-1fff-53fb-9865-54b4f60df2e7-attr-10-comment" class="er entityLabel"/></g><g transform="translate(22.818923950195312,534 )" id="entity-Message-a3849f5f-6e30-5367-9632-ff041b746560"><rect height="157" width="135.27761840820312" y="0" x="0" class="er entityBox"/><text style="dominant-baseline: middle; text-anchor: middle; font-size: 12px;" transform="translate(67.63880920410156,12)" y="0" x="0" id="text-entity-Message-a3849f5f-6e30-5367-9632-ff041b746560" class="er entityLabel">Message</text><rect height="23" width="54.095550537109375" y="24" x="0" class="er attributeBoxOdd"/><text style="dominant-baseline: middle; font-size: 10.2px;" transform="translate(5,35.5)" y="0" x="0" id="text-entity-Message-a3849f5f-6e30-5367-9632-ff041b746560-attr-1-type" class="er entityLabel">String</text><rect height="23" width="58.60394287109375" y="24" x="54.095550537109375" class="er attributeBoxOdd"/><text style="dominant-baseline: middle; font-size: 10.2px;" transform="translate(59.095550537109375,35.5)" y="0" x="0" id="text-entity-Message-a3849f5f-6e30-5367-9632-ff041b746560-attr-1-name" class="er entityLabel">id</text><rect height="23" width="22.578125" y="24" x="112.69949340820312" class="er attributeBoxOdd"/><text style="dominant-baseline: middle; font-size: 10.2px;" transform="translate(117.69949340820312,35.5)" y="0" x="0" id="text-entity-Message-a3849f5f-6e30-5367-9632-ff041b746560-attr-1-comment" class="er entityLabel">🗝️</text><rect height="22" width="54.095550537109375" y="47" x="0" class="er attributeBoxEven"/><text style="dominant-baseline: middle; font-size: 10.2px;" transform="translate(5,58)" y="0" x="0" id="text-entity-Message-a3849f5f-6e30-5367-9632-ff041b746560-attr-2-type" class="er entityLabel">Role</text><rect height="22" width="58.60394287109375" y="47" x="54.095550537109375" class="er attributeBoxEven"/><text style="dominant-baseline: middle; font-size: 10.2px;" transform="translate(59.095550537109375,58)" y="0" x="0" id="text-entity-Message-a3849f5f-6e30-5367-9632-ff041b746560-attr-2-name" class="er entityLabel">role</text><rect height="22" width="22.578125" y="47" x="112.69949340820312" class="er attributeBoxEven"/><text style="dominant-baseline: middle; font-size: 10.2px;" transform="translate(117.69949340820312,58)" y="0" x="0" id="text-entity-Message-a3849f5f-6e30-5367-9632-ff041b746560-attr-2-comment" class="er entityLabel"/><rect height="22" width="54.095550537109375" y="69" x="0" class="er attributeBoxOdd"/><text style="dominant-baseline: middle; font-size: 10.2px;" transform="translate(5,80)" y="0" x="0" id="text-entity-Message-a3849f5f-6e30-5367-9632-ff041b746560-attr-3-type" class="er entityLabel">String</text><rect height="22" width="58.60394287109375" y="69" x="54.095550537109375" class="er attributeBoxOdd"/><text style="dominant-baseline: middle; font-size: 10.2px;" transform="translate(59.095550537109375,80)" y="0" x="0" id="text-entity-Message-a3849f5f-6e30-5367-9632-ff041b746560-attr-3-name" class="er entityLabel">content</text><rect height="22" width="22.578125" y="69" x="112.69949340820312" class="er attributeBoxOdd"/><text style="dominant-baseline: middle; font-size: 10.2px;" transform="translate(117.69949340820312,80)" y="0" x="0" id="text-entity-Message-a3849f5f-6e30-5367-9632-ff041b746560-attr-3-comment" class="er entityLabel"/><rect height="22" width="54.095550537109375" y="91" x="0" class="er attributeBoxEven"/><text style="dominant-baseline: middle; font-size: 10.2px;" transform="translate(5,102)" y="0" x="0" id="text-entity-Message-a3849f5f-6e30-5367-9632-ff041b746560-attr-4-type" class="er entityLabel">DateTime</text><rect height="22" width="58.60394287109375" y="91" x="54.095550537109375" class="er attributeBoxEven"/><text style="dominant-baseline: middle; font-size: 10.2px;" transform="translate(59.095550537109375,102)" y="0" x="0" id="text-entity-Message-a3849f5f-6e30-5367-9632-ff041b746560-attr-4-name" class="er entityLabel">createdAt</text><rect height="22" width="22.578125" y="91" x="112.69949340820312" class="er attributeBoxEven"/><text style="dominant-baseline: middle; font-size: 10.2px;" transform="translate(117.69949340820312,102)" y="0" x="0" id="text-entity-Message-a3849f5f-6e30-5367-9632-ff041b746560-attr-4-comment" class="er entityLabel"/><rect height="22" width="54.095550537109375" y="113" x="0" class="er attributeBoxOdd"/><text style="dominant-baseline: middle; font-size: 10.2px;" transform="translate(5,124)" y="0" x="0" id="text-entity-Message-a3849f5f-6e30-5367-9632-ff041b746560-attr-5-type" class="er entityLabel">DateTime</text><rect height="22" width="58.60394287109375" y="113" x="54.095550537109375" class="er attributeBoxOdd"/><text style="dominant-baseline: middle; font-size: 10.2px;" transform="translate(59.095550537109375,124)" y="0" x="0" id="text-entity-Message-a3849f5f-6e30-5367-9632-ff041b746560-attr-5-name" class="er entityLabel">updatedAt</text><rect height="22" width="22.578125" y="113" x="112.69949340820312" class="er attributeBoxOdd"/><text style="dominant-baseline: middle; font-size: 10.2px;" transform="translate(117.69949340820312,124)" y="0" x="0" id="text-entity-Message-a3849f5f-6e30-5367-9632-ff041b746560-attr-5-comment" class="er entityLabel"/><rect height="22" width="54.095550537109375" y="135" x="0" class="er attributeBoxEven"/><text style="dominant-baseline: middle; font-size: 10.2px;" transform="translate(5,146)" y="0" x="0" id="text-entity-Message-a3849f5f-6e30-5367-9632-ff041b746560-attr-6-type" class="er entityLabel">String</text><rect height="22" width="58.60394287109375" y="135" x="54.095550537109375" class="er attributeBoxEven"/><text style="dominant-baseline: middle; font-size: 10.2px;" transform="translate(59.095550537109375,146)" y="0" x="0" id="text-entity-Message-a3849f5f-6e30-5367-9632-ff041b746560-attr-6-name" class="er entityLabel">userId</text><rect height="22" width="22.578125" y="135" x="112.69949340820312" class="er attributeBoxEven"/><text style="dominant-baseline: middle; font-size: 10.2px;" transform="translate(117.69949340820312,146)" y="0" x="0" id="text-entity-Message-a3849f5f-6e30-5367-9632-ff041b746560-attr-6-comment" class="er entityLabel"/></g><rect height="14" width="63.306640625" y="129.96461486816406" x="16.49380874633789" class="er relationshipLabelBox"/><text style="text-anchor: middle; dominant-baseline: middle; font-size: 12px;" y="136.96461486816406" x="48.14712905883789" id="rel1" class="er relationshipLabel">companions</text><rect height="14" width="47.67578125" y="129.96484375" x="108.93013000488281" class="er relationshipLabelBox"/><text style="text-anchor: middle; dominant-baseline: middle; font-size: 12px;" y="136.96484375" x="132.7680206298828" id="rel2" class="er relationshipLabel">category</text><rect height="14" width="50.09375" y="477.5390625" x="21.09807586669922" class="er relationshipLabelBox"/><text style="text-anchor: middle; dominant-baseline: middle; font-size: 12px;" y="484.5390625" x="46.14495086669922" id="rel3" class="er relationshipLabel">messages</text><rect height="14" width="55.66796875" y="734" x="62.62401580810547" class="er relationshipLabelBox"/><text style="text-anchor: middle; dominant-baseline: middle; font-size: 12px;" y="741" x="90.45800018310547" id="rel4" class="er relationshipLabel">enum:role</text><rect height="14" width="58.75" y="477.53912353515625" x="105.39605712890625" class="er relationshipLabelBox"/><text style="text-anchor: middle; dominant-baseline: middle; font-size: 12px;" y="484.53912353515625" x="134.77105712890625" id="rel5" class="er relationshipLabel">companion</text></svg>