<svg width="150" height="150" viewBox="0 0 150 150" fill="none" xmlns="http://www.w3.org/2000/svg">
<rect width="150" height="150" fill="#D9D9D9"/>
<path d="M23.5075 150L24.4254 143.579L25.3433 138.534C25.4963 137.77 26.353 136.058 28.556 135.324C30.759 134.59 38.041 131.961 41.4067 130.738L53.7985 126.152L55.1754 125.693L56.0933 120.19C56.5522 118.967 58.4799 115.97 62.5187 113.769L65.2724 112.393L60.6828 107.807L59.306 106.89C59.153 107.807 58.847 109.733 58.847 110.1C58.847 110.467 57.6231 107.807 57.0112 106.431C56.7052 105.82 56.0933 104.505 56.0933 104.138C56.0933 103.771 55.1754 105.82 54.7164 106.89C54.2575 105.208 53.3396 101.753 53.3396 101.386V100.928L51.0448 97.7172L49.6679 94.9655C47.6791 94.0483 43.7015 91.7552 43.7015 89.9207C43.7015 92.3485 43.7816 97.1246 44.0915 98.0417C44.1806 98.1755 44.209 98.2243 44.1604 98.1759C44.1363 98.1517 44.1133 98.1063 44.0915 98.0417C43.338 96.9099 38.2425 89.7007 38.653 83.9586C37.6513 82.8464 35.9694 80.8765 35.2686 79.7443C35.8905 82.8737 37.1095 93.8614 38.653 97.7172C40.1216 101.386 34.0634 89.7678 30.8507 83.5C29.1679 77.2322 26.2612 63.1372 28.097 56.9C25.8022 60.1103 20.5701 66.531 18 66.531C19.9888 64.5437 24.0582 60.2021 24.4254 58.7345C24.8843 56.9 27.1791 50.0207 28.097 49.1034L30.3918 43.6C27.3321 45.2816 21.1209 48.5531 20.7537 48.1862C20.2948 47.7276 26.7201 44.0586 27.6381 42.6828C28.556 41.3069 34.0634 35.8034 35.8993 33.0517L35.8993 33.0517C37.7351 30.3 40.4888 26.1724 42.7836 24.3379C45.0784 22.5034 48.291 19.7517 51.5037 18.8345C54.0739 18.1007 64.5075 17.3057 69.403 17H79.041C81.4888 17 87.6694 17.9172 92.8097 21.5862C97.5333 25.2949 98.743 26.1894 98.7894 26.1914C98.785 26.185 98.7805 26.1787 98.7761 26.1724C98.7885 26.1848 98.7935 26.1916 98.7894 26.1914C99.8684 27.7345 102.455 31.7841 104.284 35.8034C106.119 39.8393 107.496 42.6828 107.955 43.6L111.168 50.9379C111.933 52.3138 113.646 55.249 114.381 55.9828C115.115 56.7166 111.933 54.454 110.25 53.231L111.627 58.7345C111.627 60.2632 111.26 63.871 109.791 66.0724C108.322 68.2738 108.261 68.5184 108.414 68.3655C108.414 70.3529 108.506 74.4193 108.873 74.7862C109.204 75.1165 107.392 73.5436 106.352 72.1236C106.969 73.9604 107.859 76.9733 108.414 78.9138L104.284 75.7034L102.907 78.9138L99.2351 96.3414V83.5C99.2351 82.7662 98.3172 85.0287 97.8582 86.2517L97.3993 100.928L96.0224 93.131L95.1045 100.01L93.7276 94.5069C92.9627 98.1759 91.5246 105.789 91.8918 106.89C92.259 107.99 91.1269 104.902 90.5149 103.221L89.597 107.348C90.209 107.807 91.4328 108.908 91.4328 109.641C91.4328 110.375 91.7388 112.087 91.8918 112.852L92.8097 114.686L94.1866 116.979V118.355C94.1866 118.814 111.627 128.445 114.84 129.821C117.41 130.921 125.701 134.56 129.526 136.241L135.034 138.534C136.257 138.993 138.889 140.736 139.623 144.038C140.357 147.34 140.847 149.389 141 150H23.5075Z" fill="#F6F6F6"/>
</svg>
